<?xml version="1.0" ?><svg id="Outline" viewBox="0 0 512 512" xmlns="http://www.w3.org/2000/svg"><defs><style>.cls-1{fill:#262626;}</style></defs><path class="cls-1" d="M439.84,178.43a11.62,11.62,0,0,0,.27-1.2,469.83,469.83,0,0,0,6.27-77.39,33.76,33.76,0,0,0-33.73-33.72,11.73,11.73,0,0,0-2.13.2L256,96,101.56,66.32a11.73,11.73,0,0,0-2.13-.2A33.76,33.76,0,0,0,65.7,99.84c0,56.93,9.65,110.46,28.68,159.1a383,383,0,0,0,63.24,106.8c45.59,54.39,90.89,77.92,92.8,78.9a11.32,11.32,0,0,0,5.15,1.24l.46,0,.48,0a11.35,11.35,0,0,0,5.15-1.24c1.5-.77,36.81-19.09,76.43-60.62,2.51.15,5,.24,7.54.24a124.44,124.44,0,0,0,94.21-205.83ZM256,421.78c-12.38-7.34-47.26-30.06-81.71-71.41-39.21-47.06-86-128.72-86-250.53a11.06,11.06,0,0,1,10.15-11l155.19,29.76a12.92,12.92,0,0,0,4.64,0L413.54,88.83a11.07,11.07,0,0,1,10.16,11,454.43,454.43,0,0,1-3.92,60c-48.71-36.15-118-32.16-162.18,12a124.45,124.45,0,0,0,53.18,207.52C286.47,402.64,265.16,416.38,256,421.78Zm161.59-90a101.77,101.77,0,1,1,0-144A101.93,101.93,0,0,1,417.63,331.82Z"/><path class="cls-1" d="M391,212.18l-70.76,74.93-29-30.73A11.34,11.34,0,0,0,274.69,272L312,311.46a11.33,11.33,0,0,0,16,.46,10.74,10.74,0,0,0,1.27-1.44l.06-.05,78.08-82.68A11.34,11.34,0,0,0,391,212.18Z"/></svg>