<?xml version="1.0" ?><svg id="Outline" viewBox="0 0 512 512" xmlns="http://www.w3.org/2000/svg"><defs><style>.cls-1{fill:#262626;}</style></defs><path class="cls-1" d="M441.22,65.51H70a11.34,11.34,0,1,0,0,22.68H93.51v227.4a29.83,29.83,0,0,0,29.79,29.8H243.87v19a40.9,40.9,0,1,0,22.68-.22v-18.8H388.7a29.83,29.83,0,0,0,29.79-29.8V88.19h22.73a11.34,11.34,0,0,0,0-22.68ZM273.82,403.58a18.21,18.21,0,1,1-18.21-18.21A18.22,18.22,0,0,1,273.82,403.58Zm122-88a7.12,7.12,0,0,1-7.11,7.12H123.3a7.12,7.12,0,0,1-7.11-7.12V88.19H395.81Z"/><path class="cls-1" d="M170.21,288.81h62.4A11.34,11.34,0,0,0,244,277.47V133.72a11.33,11.33,0,0,0-11.34-11.33h-62.4a11.34,11.34,0,0,0-11.34,11.33V277.47A11.34,11.34,0,0,0,170.21,288.81Zm11.34-143.75h39.72V266.13H181.55Z"/><path class="cls-1" d="M278.6,288.81H341a11.34,11.34,0,0,0,11.34-11.34v-80A11.34,11.34,0,0,0,341,186.14H278.6a11.34,11.34,0,0,0-11.34,11.34v80A11.34,11.34,0,0,0,278.6,288.81Zm11.34-80h39.72v57.32H289.94Z"/></svg>