<svg fill="#000000" xmlns="http://www.w3.org/2000/svg"  viewBox="0 0 16 16" width="16px" height="16px">
    <path d="M 9 1 C 7.902344 1 7 1.902344 7 3 L 3 3 L 3 6 C 1.902344 6 1 6.902344 1 8 C 1 9.097656 1.902344 10 3 10 L 3 13 L 7 13 C 7 14.097656 7.902344 15 9 15 C 10.097656 15 11 14.097656 11 13 L 15 13 L 15 9 L 14 9 C 13.441406 9 13 8.558594 13 8 C 13 7.441406 13.441406 7 14 7 L 15 7 L 15 3 L 11 3 C 11 1.902344 10.097656 1 9 1 Z M 9 2 C 9.558594 2 10 2.441406 10 3 L 10 4 L 14 4 L 14 6 C 12.902344 6 12 6.902344 12 8 C 12 9.097656 12.902344 10 14 10 L 14 12 L 10 12 L 10 13 C 10 13.558594 9.558594 14 9 14 C 8.441406 14 8 13.558594 8 13 L 8 12 L 4 12 L 4 9 L 3 9 C 2.441406 9 2 8.558594 2 8 C 2 7.441406 2.441406 7 3 7 L 4 7 L 4 4 L 8 4 L 8 3 C 8 2.441406 8.441406 2 9 2 Z"/>
</svg>