<?xml version="1.0" ?><svg id="Outline" viewBox="0 0 512 512" xmlns="http://www.w3.org/2000/svg"><defs><style>.cls-1{fill:#262626;}</style></defs><path class="cls-1" d="M412.75,83.57H97.38A28.41,28.41,0,0,0,69,112V317.59A28.41,28.41,0,0,0,97.38,346H243.73v59.84H150a11.34,11.34,0,0,0,0,22.68H362a11.34,11.34,0,1,0,0-22.68H266.4V346H412.75a28.41,28.41,0,0,0,28.38-28.38V112A28.41,28.41,0,0,0,412.75,83.57ZM97.38,106.25H412.75a5.71,5.71,0,0,1,5.7,5.7V244.27H91.68V112A5.71,5.71,0,0,1,97.38,106.25Zm315.37,217H97.38a5.71,5.71,0,0,1-5.7-5.7V266.94H418.45v50.65A5.71,5.71,0,0,1,412.75,323.29Z"/><path class="cls-1" d="M288.36,283.51H223a11.34,11.34,0,1,0,0,22.68h65.36a11.34,11.34,0,0,0,0-22.68Z"/></svg>